<?xml version="1.0" encoding="utf-8"?>
<!-- Generator: Adobe Illustrator 19.2.1, SVG Export Plug-In . SVG Version: 6.00 Build 0)  -->
<svg version="1.1" id="layer" xmlns="http://www.w3.org/2000/svg" xmlns:xlink="http://www.w3.org/1999/xlink" x="0px" y="0px"
	 viewBox="0 0 652 652" style="enable-background:new 0 0 652 652;" xml:space="preserve" fill="currentColor">
<path class="st0" d="M286.5,308.9c0,6.6-1.3,12.6-3.5,17c-2.8,5.2-5.9,8.8-9.2,10.5c-4.5,2.3-10.1,4.6-18,4.6h-11v-62h8.8
	c11.7,0,19.7,2.3,24.5,7C283.8,291.5,286.5,299,286.5,308.9 M281.4,267.4c-6.6-3.4-16.5-3.4-29-3.4h-19.3c-3.2,0-5.7,2.6-5.7,5.7
	v80.3c0,3.2,2.6,5.7,5.7,5.7h18.2c10.3,0,19.7-1.1,25.7-2.9c4.3-1.3,8.7-4.2,13.7-8.9c4.2-4,7.6-9,9.9-14.9
	c2.4-6.1,3.6-12.6,3.6-19.7c0-10-2.1-18.6-6.4-26.2C293.8,276,288.6,271.1,281.4,267.4 M619.2,340.9h-28.4v-74.6
	c0-1.3-1-2.3-2.3-2.3h-12.8c-1.3,0-2.3,1-2.3,2.3v87.1c0,1.3,1,2.3,2.3,2.3h43.6c1.3,0,2.3-1,2.3-2.3v-10.2
	C621.6,341.9,620.5,340.9,619.2,340.9 M543.7,319.7c0,6.1-1.9,11.1-5.5,15c-3.7,3.9-8.3,5.9-13.7,5.9c-5.6,0-10.2-2-13.9-5.8
	c-3.7-3.9-5.5-9-5.5-15.2c0-6.1,1.9-11.1,5.5-14.9c3.7-3.8,8.3-5.7,13.9-5.7c5.5,0,10.2,2,13.8,5.8
	C541.9,308.7,543.7,313.7,543.7,319.7 M527.9,283.4c-4.2,0-8.4,0.8-12,2.3c-4.1,1.8-7.9,4.2-10.6,7l-1.6,1.3l-7.4-6.9h-7.8
	c-1.3,0-2.3,1-2.3,2.3v89.7c0,1.3,1,2.3,2.3,2.3h12.8c1.3,0,2.3-1,2.3-2.3v-33.2l1.6,1.2c3.5,3.3,8,5.5,11.2,6.9
	c3.4,1.4,7.1,2.1,11.1,2.1c9,0,16.6-3.4,23.2-10.4c6.6-7,9.8-15.4,9.8-25.9c0-10.6-3.2-19.4-9.6-26.3
	C544.7,286.8,537,283.4,527.9,283.4 M418.1,312.7l0.4-1.1c2.3-5.1,4.4-8.3,6.5-9.8c3.7-2.8,8.1-4.1,13-4.1c4.2,0,8.2,1.4,12,4
	c3.3,2.4,5.7,5.8,6.9,9.9l0.3,1.1H418.1z M437.1,283.4c-10.4,0-18.7,3.4-25.6,10.5c-6.9,7-10.2,15.7-10.2,26.3
	c0,10.4,3.3,18.8,10.2,25.7c6.9,6.9,15.6,10.3,26.5,10.3c7,0,13.2-1.2,18.1-3.7c4.2-2,7.9-5,11.1-8.8c0.5-0.6,0.6-1.3,0.5-2
	c-0.2-0.7-0.6-1.3-1.3-1.6l-10.3-4.7c-0.8-0.4-1.8-0.2-2.5,0.3c-4.6,4-9.9,6-15.8,6s-10.3-1.3-13.7-4.1c-3.5-2.9-5.5-6-6.4-10h53.7
	c1.3,0,2.3-1,2.3-2.3l0-2.3c0-11.9-3.7-22.5-10.2-29.2C456.8,286.8,448.1,283.4,437.1,283.4 M333.2,312.7l0.4-1.1
	c2.3-5.1,4.5-8.3,6.5-9.8c3.7-2.8,8.1-4.1,13-4.1c4.2,0,8.2,1.4,12,4c3.3,2.4,5.7,5.8,6.9,9.9l0.3,1.1H333.2z M352.2,283.4
	c-10.4,0-18.7,3.4-25.6,10.5c-6.9,7-10.2,15.7-10.2,26.3c0,10.4,3.3,18.8,10.2,25.7c6.9,6.9,15.6,10.3,26.5,10.3
	c7,0,13.2-1.2,18.1-3.7c4.2-2,7.9-5,11.1-8.8c0.5-0.6,0.6-1.3,0.5-2c-0.2-0.7-0.6-1.3-1.3-1.6l-10.3-4.7c-0.8-0.4-1.8-0.2-2.5,0.3
	c-4.6,4-9.9,6-15.8,6c-5.9,0-10.3-1.3-13.6-4.1c-3.5-2.9-5.5-6-6.4-10h53.7c1.3,0,2.3-1,2.3-2.3l0-2.3c0-11.9-3.7-22.5-10.2-29.2
	C371.9,286.8,363.2,283.4,352.2,283.4 M133.2,323.5c-7.6,0-13.8-6.2-13.8-13.8c0-0.8,0.1-1.6,0.2-2.4l-33-19c-2.4,2-5.5,3.3-8.9,3.3
	c-7.6,0-13.8-6.2-13.8-13.8c0-7.6,6.2-13.8,13.8-13.8c7.6,0,13.8,6.2,13.8,13.8c0,0.9-0.1,1.7-0.2,2.6l32.9,18.9
	c2.4-2.1,5.6-3.4,9.1-3.4c7.6,0,13.8,6.2,13.8,13.8C147,317.4,140.8,323.5,133.2,323.5 M91.4,341.9c0,7.6-6.2,13.8-13.8,13.8
	c-7.6,0-13.8-6.2-13.8-13.8c0-7.6,6.2-13.8,13.8-13.8c3.4,0,6.6,1.3,9,3.3l24.1-13.8c1,3,2.6,5.7,4.7,8l-24.1,13.9
	C91.3,340.2,91.4,341,91.4,341.9 M174.4,257.6l-65.5-37.5c-4.5-2.5-9.9-2.5-14.4,0l-65.5,37.5c-4.5,2.6-7.3,7.4-7.3,12.6v76.2
	c0,5.2,2.8,10,7.3,12.6l112.8,65.1l0-46.3l32.7-18.9c4.5-2.6,7.3-7.4,7.3-12.6v-76.2C181.7,265,178.9,260.2,174.4,257.6"/>
</svg>
